# xmcd CD database file
#
# Track frame offsets:
#	150
#	24004
#	52627
#	74671
#	98668
#	120803
#	139290
#	157855
#	177376
#	200045
#	220814
#	246448
#	267411
#	304867
#
# Disc length: 4329 seconds
#
# Revision: 1
# Processed by: cddbd v1.5.2PL0 Copyright (c) Steve Scherf et al.
# Submitted via: CDex 1.51
#
DISCID=bf10e70e
DTITLE=The Album Leaf - One Day I'll Be On Time
DYEAR=2001
DGENRE=Post Rock
TTITLE0=Guest Of...
TTITLE1=The MP
TTITLE2=Story Board
TTITLE3=Wet The Day
TTITLE4=The Audio Pool
TTITLE5=Hang Over
TTITLE6=In Between Lines
TTITLE7=Last Time Here
TTITLE8=Asleep
TTITLE9=The Sailor
TTITLE10=Vermillion
TTITLE11=Glimmer
TTITLE12=Lamp Light
TTITLE13=Airplane (Remix)
EXTD=YEAR: 2001
EXTT0=
EXTT1=
EXTT2=
EXTT3=
EXTT4=
EXTT5=
EXTT6=
EXTT7=
EXTT8=
EXTT9=
EXTT10=
EXTT11=
EXTT12=
EXTT13=
PLAYORDER=
